<?xml version="1.0" standalone="no"?>
<!DOCTYPE svg PUBLIC "-//W3C//DTD SVG 1.1//EN" "http://www.w3.org/Graphics/SVG/1.1/DTD/svg11.dtd" >
<svg xmlns="http://www.w3.org/2000/svg">
<metadata>Generated by IcoMoon</metadata>
<defs>
<font id="icomoon" horiz-adv-x="1024">
<font-face units-per-em="1024" ascent="960" descent="-64" />
<missing-glyph horiz-adv-x="1024" />
<glyph unicode="&#x20;" horiz-adv-x="512" d="" />
<glyph unicode="&#xe900;" glyph-name="ico-codex" d="M846.769 881.231h-630.154c-21.74 0-39.385-17.644-39.385-39.385v-787.692c0-21.74 17.644-39.385 39.385-39.385h630.154c21.74 0 39.385 17.644 39.385 39.385v787.692c0 21.74-17.644 39.385-39.385 39.385zM807.385 93.538h-551.385v708.923h78.769v-236.308l78.769 59.077 78.769-59.077v236.308h315.077v-708.923z" />
<glyph unicode="&#xe901;" glyph-name="ico-doc_right_panel-about" d="M480 192h64v320h-64v-320zM512 960c-282.784 0-512-229.248-512-512s229.216-512 512-512 512 229.248 512 512c0 282.752-229.216 512-512 512zM512-2.688c-248.896 0-450.656 201.824-450.656 450.688 0 248.896 201.76 450.656 450.656 450.656s450.656-201.76 450.656-450.656c0-248.864-201.76-450.688-450.656-450.688zM480 608h64v96h-64v-96z" />
<glyph unicode="&#xe902;" glyph-name="ico-doc_right_panel-contents" d="M32 704h736v64h-736v-64zM832 768v-64h160v64h-160zM32 512h736v64h-736v-64zM832 512h160v64h-160v-64zM32 320h736v64h-736v-64zM832 320h160v64h-160v-64zM32 128h736v64h-736v-64zM832 128h160v64h-160v-64z" />
<glyph unicode="&#xe903;" glyph-name="ico-doc_right_panel-links" d="M376.224 357.504l-67.904-67.872 45.28-45.28 362.048 362.048-45.28 45.28-294.144-294.176zM512 312.256l-22.656-22.624 45.28-45.28-113.12-113.12c-62.496-62.464-163.808-62.464-226.272 0-62.496 62.464-62.496 163.776 0 226.272l113.12 113.12 45.248-45.248 45.28 45.248-90.528 90.528c-74.24-74.24-60.768-60.8-135.744-135.776l-45.248-45.248c-75.008-75.008-75.008-196.576 0-271.52l45.248-45.28c74.976-74.976 196.544-74.976 271.52 0l45.248 45.28c74.976 74.976 67.872 67.872 135.744 135.744l-90.528 90.528-22.592-22.624zM896.672 787.392l-45.248 45.28c-74.976 74.976-196.544 74.976-271.52 0l-45.248-45.28c-74.976-74.976-71.648-75.424-133.888-137.632l88.64-88.64 45.248 45.28-45.248 45.248 90.496 90.496 1.504-1.504c5.728 8.48 12.224 16.608 19.712 24.128 62.88 62.88 164.8 62.88 227.68 0s62.88-164.8 0-227.68c-7.488-7.52-15.648-14.016-24.128-19.712l1.504-1.504-90.496-90.496-45.248 45.248-22.688-22.624-22.624-22.624 90.528-90.528c77.312 77.312 60.768 60.768 135.744 135.744l45.248 45.248c75.008 75.008 75.008 196.608 0.032 271.552z" />
<glyph unicode="&#xe904;" glyph-name="ico-doc_right_panel-sravnenie" d="M192 512h320v64h-320v-64zM544 768h-384c-70.688 0-128-57.312-128-128v-576c0-70.688 57.312-128 128-128h384c70.688 0 128 57.312 128 128v576c0 70.688-57.312 128-128 128zM608 64c0-35.328-28.672-64-64-64h-384c-35.328 0-64 28.672-64 64v576c0 35.328 28.672 64 64 64h384c35.328 0 64-28.672 64-64v-576zM192 384h320v64h-320v-64zM192 256h320v64h-320v-64zM736 320h96v64h-96v-64zM864 960h-384c-70.688 0-128-57.312-128-128h64c0 35.328 28.672 64 64 64h384c35.328 0 64-28.672 64-64v-576c0-35.328-28.672-64-64-64h-96v-64h96c70.688 0 128 57.312 128 128v576c0 70.688-57.312 128-128 128zM736 576h96v64h-96v-64zM832 768h-96v-64h96v64zM736 448h96v64h-96v-64zM192 128h320v64h-320v-64z" />
<glyph unicode="&#xe905;" glyph-name="ico-favorites" d="M531.692 270.631l-162.895-98.324 42.89 185.442-143.813 124.77 189.755 16.030 74.063 175.025 74.082-175.025 189.755-16.030-143.852-124.77 42.89-185.442zM964.923 537.088l-311.454 26.447-121.777 287.232-121.738-287.212-311.493-26.466 236.111-204.938-70.617-304.542 267.737 161.615 267.737-161.615-71.030 304.542 236.524 204.938z" />
<glyph unicode="&#xe906;" glyph-name="ico-history" d="M531.692 91.845c191.409 0 346.604 155.195 346.604 346.585 0 191.429-155.195 346.585-346.604 346.585-191.429 0-346.585-155.156-346.585-346.585 0-191.39 155.156-346.585 346.585-346.585zM531.692 871.66c239.281 0 433.231-193.969 433.231-433.231 0-239.281-193.95-433.231-433.231-433.231-239.557 0-433.231 194.954-433.231 433.231 0 239.281 193.969 433.231 433.231 433.231zM553.374 655.045v-227.446l194.934-115.673-32.473-53.307-227.466 136.487v259.938h65.004z" />
<glyph unicode="&#xe907;" glyph-name="ico-index-didjest" d="M877.714 911.238v-828.952c0-26.917-21.845-48.762-48.762-48.762s-48.762 21.845-48.762 48.762v828.952h-682.667c0-50.298 0-43.666 0-97.524v-731.429c0-53.858 43.666-97.524 97.524-97.524h633.905c53.858 0 97.524 43.666 97.524 97.524v731.429c0 53.858 0 40.375 0 97.524h-48.762zM512 204.19h-316.952v48.762h316.952v-48.762zM682.667 301.714h-487.619v48.762h487.619v-48.762zM682.667 399.238h-487.619v48.762h487.619v-48.762zM682.667 496.762h-487.619v48.762h487.619v-48.762zM682.667 594.286h-487.619v48.762h487.619v-48.762zM682.667 691.81h-487.619v48.762h487.619v-48.762zM828.952 82.286c13.483 0 24.381 10.898 24.381 24.381v804.571c-13.726 0-10.898 0-24.381 0s-12.19 0-24.381 0v-804.571c0-13.483 10.898-24.381 24.381-24.381z" />
<glyph unicode="&#xe908;" glyph-name="ico-index-qa" d="M672.841 914.481c43.203-16.067 73.728-36.962 107.886-61.050 11.752-8.29 26.892-13.141 35.328-24.454 12.069-16.189 17.481-35.596 27.16-54.345 22.016-42.545 36.62-124.709 24.454-186.246-16.603 74.167-56.954 114.005-150.016 136.631 38.863-116.078 38.839-119.71 140.995-173.69-1.365-16.555-2.95-33.353-7.266-48.494-19.042-66.926-53.687-116.809-76.093-176.664-10.606-28.258-15.677-72.631-5.437-106.008 3.706-12.239 21.553-31.866 10.85-48.933-9.314-14.872-98.402-57.32-119.589-70.68-63.293-39.863-120.369-89.795-179.395-133.169-22.65-16.652-48.567-31.671-67.95-51.663-4.754 1.731-2.633 0.536-5.437 2.731-2.024 2.926-1.634 2.56-2.706 8.143 6.705 8.972 4.925 19.432 8.143 32.622 16.506 67.291-13.946 117.443-27.185 168.521-8.85 34.231-1.731 75.215-40.741 78.824-21.333-14.36-61.903-14.092-86.967-8.168-7.948 11.557-22.65 20.894-27.185 35.328-7.168 22.845 7.192 37.083 8.143 57.1-45.495 25.893-10.338 55.906-27.112 81.701-11.8 18.091-48.884 1.926-57.173 24.283-9.484 14.409 2.097 36.254 5.437 46.202 10.338 30.696 14.775 56.052 27.185 84.261 6.607 15.043 20.968 28.574 27.185 43.496 8.802 21.187-6.388 43.179 0 67.974 6.51 25.21 19.237 52.053 27.185 76.117l0.39 2.414c46.104-52.273 85.723-60.050 187.831-25.722-87.040 73.972-98.426 84.821-176.835 81.896 14.287 39.79 44.861 92.453 72.899 112.664 16.311 11.752 73.021 37.083 92.404 43.496 70.29 23.284 191.049 0.951 243.176-10.874l10.435-4.242zM541.013 805.864c40.984-122.417 23.747-132.827 153.015-188.562-7.851 137.167-45.178 145.164-145.579 182.955l-7.436 5.608zM362.715 856.99c40.984-122.417 42.423-116.029 162.402-179.224-7.875 137.192-45.202 141.434-162.402 169.886v9.338zM538.722 540.379c109.739-50.005 146.846-57.149 237.763 45.909-133.388 24.357-129.926 25.039-237.763-45.909v0zM352.963 604.574c109.739-49.981 141.263-66.462 232.18 36.571-133.413 24.405-124.367 34.402-232.18-36.571z" />
<glyph unicode="&#xe909;" glyph-name="ico-index-widjet" d="M219.429 643.048h24.381c26.917 0 48.762 21.845 48.762 48.762v24.381c0 26.917-21.845 48.762-48.762 48.762h-24.381c-26.917 0-48.762-21.845-48.762-48.762v-24.381c0-26.917 21.845-48.762 48.762-48.762zM926.476 935.619h-828.952c-53.858 0-97.524-43.666-97.524-97.524v-585.143c0-53.858 43.666-97.524 97.524-97.524h316.952v-97.524h-97.524v-97.524h390.095v97.524h-97.524v97.524h316.952c53.858 0 97.524 43.666 97.524 97.524v585.143c0 53.858-43.666 97.524-97.524 97.524zM926.476 252.952h-828.952v585.143h828.952v-585.143z" />
<glyph unicode="&#xe90a;" glyph-name="ico-list_right_panel-filter" d="M910.222 846.222h-796.444v-56.889h35.556l248.889-398.222v-341.333l227.556 113.778v227.556l248.889 398.222h35.556v56.889zM568.889 391.111v-199.111l-112.327-56.178-1.451 255.289-248.889 398.222h611.556l-248.889-398.222z" />
<glyph unicode="&#xe90b;" glyph-name="ico-list_right_panel-filter_circle" d="M284.444 561.778h37.916l132.75-199.111v-199.111l113.778 113.778v85.333l132.75 199.111h37.916v56.889h-455.111v-56.889zM644.75 561.778l-113.778-170.667h-37.916l-113.778 170.667h265.472zM512 960c-282.766 0-512-229.234-512-512s229.234-512 512-512 512 229.234 512 512c0 282.766-229.234 512-512 512zM512-7.111c-251.364 0-455.111 203.776-455.111 455.111s203.748 455.111 455.111 455.111 455.111-203.776 455.111-455.111c0-251.335-203.748-455.111-455.111-455.111z" />
<glyph unicode="&#xe90c;" glyph-name="ico-list_right_panel-sort_circle" d="M284.444 561.778h455.111v56.889h-455.111v-56.889zM284.444 419.556h284.444v56.889h-284.444v-56.889zM512 960c-282.766 0-512-229.234-512-512s229.234-512 512-512 512 229.234 512 512c0 282.766-229.234 512-512 512zM512-7.111c-251.364 0-455.111 203.776-455.111 455.111s203.748 455.111 455.111 455.111 455.111-203.776 455.111-455.111c0-251.335-203.748-455.111-455.111-455.111zM284.444 277.333h170.667v56.889h-170.667v-56.889z" />
<glyph unicode="&#xe90d;" glyph-name="ico-radar" d="M838.006 746.161l-61.105-61.086c62.366-62.818 101.356-149.465 101.356-245.209 0-191.409-155.175-346.585-346.585-346.585-191.429 0-346.585 155.175-346.585 346.585 0 176.758 132.116 322.324 303.262 343.552v-87.493c-123.038-20.815-216.615-127.39-216.615-256.059 0-143.557 116.382-259.938 259.938-259.938 143.596 0 259.938 116.382 259.938 259.938 0 71.916-29.026 136.901-76.249 183.71l-61.086-61.125c31.173-31.606 50.668-74.929 50.668-122.604 0-95.685-77.588-173.292-173.292-173.292s-173.292 77.588-173.292 173.292c0 80.581 55.434 147.751 129.969 167.207v-92.692c-25.994-15.163-43.323-42.457-43.323-74.516 0-47.852 38.794-86.646 86.646-86.646s86.646 38.814 86.646 86.646c0 32.059-17.349 59.786-43.323 74.516v358.735h-43.284c-239.262 0-433.231-193.969-433.231-433.231 0-239.281 193.969-433.231 433.231-433.231 239.281 0 433.231 193.95 433.231 433.231 0 119.552-48.522 227.86-126.917 306.294z" />
<glyph unicode="&#xe90e;" glyph-name="ico-rubrics" d="M157.538 763.077v-98.462h708.923v98.462h-708.923zM157.538 487.385h708.923v98.462h-708.923v-98.462zM157.538 310.154h708.923v98.462h-708.923v-98.462zM157.538 132.923h433.231v98.462h-433.231v-98.462z" />
<glyph unicode="&#xe90f;" glyph-name="ico-spravka" d="M216.615 113.231h157.538v315.077h-157.538v-315.077zM452.923 113.231h157.538v669.538h-157.538v-669.538zM689.231 585.846v-472.615h157.538v472.615h-157.538z" />
<glyph unicode="&#xe910;" glyph-name="ico-spravka-currency" d="M640 864v-96h177.44l-265.568-265.568-205.312 117.856-5.344-9.312-2.144 1.12-211.072-391.424v643.328h-96v-864h960v96h-822.144l212.064 393.28 204.832-117.6 40.256 70.112 268.992 268.992v-198.784h96v352z" />
<glyph unicode="&#xe911;" glyph-name="ico-spravka-posobia" d="M864 800h-64v48c0 26.496-21.504 48-48 48s-48-21.504-48-48v-48h-384v48c0 26.496-21.472 48-48 48s-48-21.504-48-48v-48h-64c-70.688 0-128-57.312-128-128v-544c0-70.688 57.312-128 128-128h704c70.688 0 128 57.312 128 128v544c0 70.688-57.312 128-128 128zM896 96h-768v512h768v-512zM288 320h64c35.328 0 64 28.672 64 64v64c0 35.328-28.672 64-64 64h-64c-35.328 0-64-28.672-64-64v-64c0-35.328 28.672-64 64-64z" />
<glyph unicode="&#xe912;" glyph-name="ico-spravka-trips" d="M864 704h-68.544c2.656 10.272 4.544 20.864 4.544 32v32c0 70.688-57.312 128-128 128h-320c-70.688 0-128-57.312-128-128v-32c0-11.136 1.856-21.728 4.544-32h-68.544c-70.688 0-128-57.312-128-128v-576h960c0 70.688 0 57.312 0 128v448c0 70.688-57.312 128-128 128zM320 800h384v-96h-384v96zM896 96h-768v96h768v-96zM896 288h-768v320h768v-320z" />
<glyph unicode="&#xe913;" glyph-name="ico-spravka-zp" d="M864 896h-704c-70.688 0-128-57.312-128-128v-640c0-70.688 57.312-128 128-128h704c70.688 0 128 57.312 128 128v640c0 70.688-57.312 128-128 128zM896 320h-384v224h384v-224zM896 635.456c-10.272 2.688-20.864 4.544-32 4.544h-320c-70.688 0-128-57.312-128-128v-160c0-70.688 57.312-128 128-128h320c11.136 0 21.728 1.888 32 4.544v-132.544h-768v704h768v-164.544zM672 480h-96v-96h96v96z" />
<glyph unicode="&#xe914;" glyph-name="ico-radar_sphere" d="M932.224-64h-872.448v133.056c0 131.296 191.616 234.080 436.224 234.080s436.224-102.816 436.224-234.080v-133.056zM123.776 0h744.448v69.056c0 80.448-152.864 170.080-372.224 170.080s-372.224-89.664-372.224-170.080v-69.056zM496 340.224c-129.088 0-234.080 105.024-234.080 234.080h64c0-93.792 76.288-170.080 170.080-170.080s170.080 76.288 170.080 170.080h64c0-129.056-104.992-234.080-234.080-234.080zM782.080 592.832h-570.72v32c0 44.32 19.264 70.112 38.528 83.456 9.92 150.080 128.352 197.056 133.632 199.072l32.288 12.352c6.912 23.84 28.224 40.288 54.944 40.288h50.496c26.688 0 48.032-16.448 54.944-40.288l32.288-12.352c5.248-2.016 123.872-49.056 133.664-199.392 18.4-13.248 36.544-38.496 38.464-81.696l1.472-33.44zM288.736 656.832h414.464c-0.192 0.096-0.384 0.16-0.576 0.224l-25.696-26.848 1.824 57.792c0 64.384-25.408 105.056-49.696 129.216l-64-98.048h-50.528v176.832h-37.056v-176.832h-50.528l-64 98.112c-24.288-24.128-49.696-64.8-49.696-129.28v-58.56l-24.512 27.392zM470.752 928v0z" />
<glyph unicode="&#xe915;" glyph-name="ico-radar_keyword" d="M798.72 416.8l-362.048 362.048c-24.992 24.992-9.92 9.92-45.248 45.248l-54.624-54.624 37.696 0.032 377.568-396.544-271.52-272.928-384.256 383.264-0.096 285.984 240.288 0.192 60.96 61.632-365.408 0.352 0.384-366.368-3.040-3.040c29.728-29.696 20.288-20.256 45.28-45.248l362.016-362.048c24.992-24.96 65.504-24.96 90.496 0l271.52 271.52c25.024 25.024 25.024 65.536 0.032 90.528zM608.352 756.224l-45.28-45.248 339.424-339.392-271.52-271.52 45.248-45.28 316.768 316.8-384.64 384.64zM187.776 484.672c50.016-50.016 131.040-50.016 181.024 0s49.984 131.040 0 181.024c-50.016 49.984-131.040 49.984-181.024 0-49.952-49.984-49.952-131.008 0-181.024zM233.024 620.448c24.992 24.992 65.536 24.992 90.528 0 24.96-24.96 24.96-65.504 0-90.496-24.992-24.992-65.536-24.992-90.528 0s-24.992 65.504 0 90.496z" />
<glyph unicode="&#xe916;" glyph-name="ico-radar_theme" d="M800 512h-576v-64h576v64zM544 928h-64v-64h64v64zM800 384h-576v-64h576v64zM800 256h-576v-64h576v64zM928 736h-160l-192 192v-95.008l96-96.992h-320l96 96.992v95.008l-192-192h-160c-35.328 0-64-28.672-64-64v-640c0-35.328 28.672-64 64-64h832c35.328 0 64 28.672 64 64v640c0 35.328-28.672 64-64 64zM928 32h-832v640h832v-640z" />
<glyph unicode="&#xe917;" glyph-name="logo" horiz-adv-x="5803" d="M1190.424 533.845v-347.746h87.845v146.383h134.217v-146.383h87.869v347.746h-87.869v-132.803h-134.217v132.803h-87.845zM1728.926 178.249c17.749 0 35.109 2.243 52.248 6.997 17.14 4.657 33.207 11.678 48.323 21.333 15.116 9.509 28.428 21.65 39.985 36.279 11.581 14.653 20.602 32.012 27.258 52.005 6.534 19.968 9.874 42.715 9.996 68.315-0.122 26.551-4.291 50.688-12.386 72.485-8.192 21.797-19.992 40.57-35.23 56.393-15.189 15.823-33.304 27.965-54.491 36.669-21.187 8.582-44.739 12.849-70.68 12.946-26.283-0.098-50.444-4.291-72.363-12.727-21.87-8.411-40.936-20.553-57.027-36.498-16.067-15.945-28.428-35.23-37.23-58.002-8.777-22.723-13.19-48.274-13.336-76.995 0.146-28.062 4.657-53.199 13.458-75.313 8.826-22.138 21.187-40.838 37.035-56.32 15.799-15.482 34.255-27.234 55.223-35.328 21.090-8.070 43.91-12.142 68.559-12.239h0.658zM1730.389 241.762c-13.093 0.146-24.893 3.096-35.377 8.948-10.581 5.949-19.505 14.141-26.99 24.722-7.509 10.752-13.336 23.089-17.237 37.376-4.072 14.287-6.095 29.891-6.095 46.763 0 14.677 1.56 28.94 4.901 42.984 3.34 13.922 8.436 26.697 15.336 37.986 6.997 11.459 16.067 20.48 26.99 27.258 11.069 6.778 24.43 10.24 39.863 10.362 15.019-0.122 27.892-3.706 38.473-10.63 10.703-6.997 19.407-16.165 26.161-27.624 6.802-11.41 11.8-24.015 14.872-37.693 3.218-13.702 4.754-27.404 4.754-41.204-0.098-23.674-3.682-44.495-10.947-62.342-7.144-17.847-17.018-31.646-29.769-41.667-12.702-9.972-27.477-15.092-44.251-15.238h-0.683zM1961.131 44.715h87.869v179.931h1.438c6.046-9.314 13.897-17.53 23.552-24.405 9.752-6.9 20.943-12.386 33.548-16.165 12.507-3.828 26.063-5.73 40.716-5.827 15.945 0 31.671 2.487 46.885 7.387 15.384 4.852 29.769 12.117 43.203 21.992 13.336 9.899 25.21 22.235 35.45 37.132 10.24 14.848 18.334 32.232 24.040 52.248 5.803 19.87 8.777 42.472 8.923 67.584-0.122 27.258-4.047 51.639-11.678 73.435s-18.091 40.35-31.549 55.808c-13.434 15.482-28.916 27.258-46.519 35.474s-36.547 12.264-56.637 12.361c-26.405-0.098-49.762-5.486-69.73-15.945-20.114-10.557-36.693-25.698-49.518-45.422h-1.438l-4.291 53.541h-77.117c0.731-16.311 1.463-34.036 2.024-52.98 0.488-19.042 0.829-39.985 0.829-62.708v-373.443zM2048.975 385.292c0 3.56 0.341 7.266 0.805 11.093 0.61 3.803 1.317 7.485 2.024 11.069 3.218 12.971 8.802 24.259 16.555 34.036 7.851 9.655 17.262 17.237 28.062 22.723 10.85 5.388 22.382 8.094 34.645 8.241 14.165-0.122 26.551-2.999 37.376-8.802 10.679-5.705 19.749-13.726 26.99-23.82 7.266-10.24 12.727-22.016 16.433-35.474 3.682-13.41 5.583-27.843 5.583-43.325 0-22.942-3.56-43.057-10.606-60.197-7.022-17.237-17.018-30.574-30.208-40.229-13.214-9.509-29.038-14.385-47.738-14.482-12.702 0.098-24.381 2.706-34.987 7.924-10.606 5.266-19.529 12.507-26.917 21.675-7.509 9.167-12.727 19.773-15.945 31.793-0.683 3.95-1.317 7.802-1.658 11.898-0.341 3.925-0.488 8.094-0.488 12.386l0.073 53.492zM2344.716 186.1h79.262l7.119 149.943c0.707 11.069 1.317 23.43 1.902 37.108 0.585 13.556 1.073 27.721 1.438 42.472 0.341 14.653 0.683 29.013 0.926 43.203h2.877c2.146-8.094 4.535-17.018 7.144-26.917 2.609-9.85 5.218-19.992 8.070-30.33 2.755-10.484 5.486-20.724 8.363-30.72 2.731-9.996 5.339-19.285 7.851-27.746l50.688-152.82h63.537l55.686 156.404c4.657 13.58 8.582 25.454 11.776 35.426 3.34 10.021 6.193 19.042 8.802 27.258 2.511 8.094 4.998 16.189 7.387 24.283 2.389 7.973 4.876 16.872 7.729 26.551h2.146c0.244-13.922 0.683-28.209 1.317-42.74 0.585-14.653 1.17-28.794 1.902-42.472 0.707-13.8 1.317-26.307 1.78-37.62l6.437-151.357h82.115l-22.845 347.746h-110.69l-45.714-136.387c-3.925-11.922-7.973-24.283-12.142-37.376-4.291-13.068-8.338-25.6-11.995-37.595-3.828-11.898-6.924-22.138-9.435-30.72h-1.438c-2.584 10.118-5.583 20.821-8.923 32.012-3.34 11.093-6.558 21.894-9.752 32.28-3.194 10.338-5.949 19.383-8.46 27.112l-49.274 150.674h-110.665l-24.917-347.672zM3100.989 394.63c0.146 19.261-2.146 37.717-6.778 55.198-4.608 17.506-12.361 33.182-23.186 47.006s-25.6 24.649-44.178 32.622c-18.554 7.948-41.667 12.142-69.388 12.239-18.31-0.098-35.45-1.536-51.298-4.51-15.823-2.828-29.989-6.558-42.618-11.191-12.483-4.632-23.089-9.655-31.793-14.994l17.14-57.125c7.997 4.998 17.018 9.533 27.16 13.336 10.094 3.803 20.821 6.9 32.11 9.021 11.313 2.17 22.747 3.365 34.255 3.365 15.238-0.146 27.624-2.267 37.035-6.339 9.387-4.047 16.53-9.143 21.431-15.458 4.876-6.315 8.046-12.849 9.874-19.773 1.658-6.9 2.487-13.336 2.365-19.163v-5.705c-42.935 0.268-79.848-4.535-110.69-14.385-30.696-9.752-54.272-24.527-70.68-44.056-16.53-19.529-24.869-43.91-24.966-72.948 0-13.336 2.487-26.185 7.266-38.424 4.754-12.386 11.776-23.333 21.187-33.085 9.289-9.85 20.724-17.603 34.231-23.235 13.507-5.656 29.062-8.655 46.568-8.753 15.238 0.098 29.379 1.999 42.35 5.925 12.971 4.072 24.527 9.411 34.767 16.408 10.24 6.924 18.798 14.897 25.673 24.064h2.17l6.437-38.546h79.262c-2.146 10.923-3.56 23.528-4.389 38.083-0.975 14.409-1.341 29.647-1.341 45.446v124.977h0.024zM3015.314 308.2c0-3.194 0-6.437-0.244-9.655-0.244-3.194-0.805-6.388-1.902-9.63-2.853-8.436-7.509-16.311-13.775-23.576-6.315-7.144-14.19-12.971-23.576-17.384-9.265-4.535-20.017-6.754-31.915-6.875-9.387 0-17.847 1.78-25.356 5.339-7.485 3.584-13.434 9.045-17.822 16.433-4.413 7.412-6.656 16.774-6.778 28.209 0.122 13.093 3.56 24.040 10.24 32.622 6.656 8.436 15.726 15.238 27.136 19.968 11.41 4.779 24.357 8.094 38.79 9.972 14.531 1.804 29.525 2.633 45.202 2.438v-47.86zM3137.56 533.845v-67.828h104.229v-279.893h87.845v279.893h104.204v67.828h-296.277zM3470.409 533.845v-347.746h104.96c10.045 19.139 20.261 38.546 30.501 58.417 10.264 19.773 20.212 39.156 29.964 58.344 9.899 19.163 19.285 37.352 28.087 54.589 5.608 11.093 10.874 21.577 15.75 31.671 4.73 10.021 9.509 20.48 14.385 31.427 4.779 10.947 9.996 23.235 15.604 36.913h2.877c-0.829-16.189-1.682-30.476-2.414-42.862-0.707-12.361-1.292-23.796-1.78-34.377-0.488-10.703-0.829-21.577-1.17-32.622-0.268-11.045-0.39-23.576-0.39-37.23l0.024-124.245h83.529v347.721h-106.374l-84.968-162.816c-6.071-12.020-11.557-23.211-16.311-33.816-4.852-10.581-9.655-21.309-14.531-32.354-4.754-11.069-10.24-23.186-16.311-36.669h-2.853c0.975 15.945 1.78 31.281 2.609 45.812 0.731 14.653 1.341 29.647 1.634 45.007 0.512 15.384 0.731 32.256 0.731 50.566l0.024 124.27h-83.578zM3865.405 186.1c7.144-0.293 16.555-0.731 28.209-1.487 11.776-0.658 24.869-1.292 39.253-1.853 14.312-0.585 29.038-0.975 43.91-0.975 11.678 0 24.527 0.39 38.424 1.17 14.092 0.853 28.331 2.536 42.886 4.901 14.653 2.511 28.696 6.046 42.13 10.801 13.58 4.754 25.698 10.947 36.425 18.7 10.703 7.753 19.139 17.262 25.454 28.745 6.315 11.24 9.533 24.869 9.655 40.667-0.122 16.189-3.803 30.11-10.923 41.886-7.266 11.678-17.384 21.187-30.354 28.331-13.093 7.266-28.331 12.142-45.812 14.75v1.438c12.605 2.609 24.283 7.144 34.987 13.702 10.825 6.437 19.529 14.97 26.161 25.429 6.68 10.654 9.996 23.235 10.24 37.986-0.122 13.361-2.731 24.771-8.119 34.304-5.218 9.509-12.215 17.603-21.26 24.015-8.923 6.437-19.042 11.678-30.354 15.604-11.288 3.901-23.089 6.9-35.352 8.923s-24.259 3.34-35.938 4.047c-11.776 0.683-22.626 0.951-32.5 0.951-11.995 0-24.137-0.268-36.401-0.731-12.264-0.439-24.040-1.195-35.474-1.902-11.288-0.805-21.797-1.755-31.183-2.828-9.533-0.951-17.481-2.024-24.015-3.121v-343.454h-0.049zM3951.811 478.866c6.315 0.707 12.605 1.438 19.163 1.999 6.558 0.488 14.165 0.853 22.967 0.853 25.722 0 44.739-3.682 57.1-10.947 12.532-7.266 18.725-17.871 18.578-31.915-0.122-11.069-3.925-19.992-11.313-26.77-7.266-6.656-16.994-11.581-29.282-14.555-12.239-2.926-25.819-4.413-40.789-4.413h-36.425v85.748zM3951.128 340.334h37.108c18.456 0.098 34.743-1.438 48.664-4.657 14.019-3.096 24.966-8.46 32.866-15.945 7.851-7.485 11.874-17.822 11.971-30.818-0.073-10.362-2.853-18.798-8.168-25.478-5.364-6.754-12.386-12.020-21.090-15.823-8.655-3.657-18.188-6.412-28.574-7.826-10.313-1.536-20.578-2.389-30.696-2.292-5.583 0-10.825 0.122-15.336 0.244-4.632 0.146-9.045 0.244-13.361 0.512-4.267 0.195-8.777 0.463-13.434 0.658l0.049 101.425zM4225.414 533.845v-347.746h87.869v144.945h11.41c14.872 0 27.965-2.536 39.253-7.729 11.191-5.12 20.943-12.824 29.282-23.357 8.46-10.435 15.823-23.674 22.138-39.619 6.461-16.774 12.142-31.525 17.335-44.008 5.291-12.629 10.142-22.626 14.775-30.257l91.429 0.024c-5.51 10.338-10.508 21.138-15.141 32.354-4.608 11.288-8.923 22.26-12.849 33.061-4.023 10.703-7.704 20.602-11.288 29.525-7.729 18.7-16.457 34.987-25.966 49.152-9.509 14.043-20.334 25.478-32.597 34.182-12.239 8.655-26.307 14.141-42.13 16.677l138.557 152.795h-104.229l-107.13-144.238h-12.849v144.238h-87.869zM4839.619 394.63c0.146 19.261-2.146 37.717-6.778 55.198-4.608 17.506-12.386 33.182-23.211 47.006-10.801 13.8-25.576 24.649-44.154 32.622-18.554 7.948-41.667 12.142-69.388 12.239-18.31-0.098-35.474-1.536-51.298-4.51-15.823-2.828-30.013-6.558-42.642-11.191-12.483-4.632-23.064-9.655-31.768-14.994l17.164-57.125c7.973 4.998 16.994 9.533 27.112 13.336s20.821 6.9 32.085 9.021c11.337 2.17 22.772 3.365 34.304 3.365 15.238-0.146 27.624-2.267 37.010-6.339 9.411-4.047 16.579-9.143 21.455-15.458 4.852-6.315 8.094-12.849 9.85-19.773 1.658-6.9 2.511-13.336 2.365-19.163l0.024-5.705c-42.984 0.268-79.823-4.535-110.69-14.385-30.696-9.752-54.272-24.527-70.68-44.056-16.555-19.529-24.893-43.91-24.966-72.948 0-13.336 2.487-26.185 7.241-38.424 4.779-12.386 11.8-23.333 21.187-33.085 9.289-9.85 20.724-17.603 34.28-23.235 13.458-5.656 29.038-8.655 46.543-8.753 15.238 0.098 29.379 1.999 42.35 5.925 12.971 4.072 24.503 9.411 34.743 16.408 10.264 6.924 18.798 14.897 25.722 24.064h2.146l6.461-38.546h79.238c-2.146 10.923-3.56 23.528-4.413 38.083-0.951 14.409-1.317 29.647-1.317 45.446v124.977h0.024zM4753.92 308.2c0-3.194-0.024-6.437-0.244-9.655-0.219-3.194-0.805-6.388-1.926-9.63-2.804-8.436-7.485-16.311-13.775-23.576-6.29-7.144-14.165-12.971-23.552-17.384-9.289-4.535-19.992-6.754-31.915-6.875-9.387 0-17.847 1.78-25.332 5.339-7.534 3.584-13.483 9.045-17.871 16.433-4.389 7.412-6.656 16.774-6.778 28.209 0.146 13.093 3.584 24.040 10.264 32.622 6.68 8.436 15.701 15.238 27.136 19.968 11.41 4.779 24.381 8.094 38.79 9.972 14.507 1.804 29.501 2.633 45.202 2.438v-47.86zM4952.99 187.758c11.045 0 20.578 2.609 28.648 7.509 8.094 4.876 14.434 11.605 18.798 19.992 4.389 8.46 6.778 18.066 6.778 28.94 0 11.337-2.365 21.041-6.9 29.525-4.51 8.436-10.947 15.043-19.042 19.773-7.997 4.657-17.506 7.095-28.282 7.095-10.606 0.024-19.895-2.536-28.087-7.363-8.094-4.73-14.482-11.41-19.042-19.773-4.632-8.411-7.144-18.213-7.144-29.257 0-10.801 2.389-20.48 6.9-28.94 4.51-8.411 10.825-15.116 18.798-19.992 7.973-4.827 17.286-7.509 27.867-7.509h0.707zM5065.509 283.185c0-11.8-0.122-23.576-0.366-35.474-0.39-11.849-0.707-23.186-1.073-33.768-0.488-10.63-0.951-19.919-1.463-27.892l75.020 0.024 4.291 52.151h1.414c8.436-14.312 18.188-25.746 29.647-34.645 11.313-8.777 23.796-15.262 37.352-19.31s27.965-6.046 42.959-6.046c15.823 0 31.305 2.487 46.543 7.485s29.647 12.386 42.959 22.382c13.336 9.996 25.112 22.382 35.352 37.376s18.31 32.475 24.137 52.346c5.73 19.992 8.68 42.472 8.826 67.486 0.122 26.551-3.34 50.566-10.386 72.119-7.022 21.675-17.018 40.229-29.964 55.686-12.971 15.604-28.331 27.502-46.080 35.816-17.603 8.46-37.205 12.654-58.539 12.727-17.384-0.098-33.207-2.365-47.25-6.997-14.141-4.535-26.624-10.947-37.327-19.285-10.703-8.314-19.675-18.091-26.795-29.403h-1.438v207.799h-87.845v-410.575h0.024zM5153.329 385.999c0 4.315 0.341 8.338 0.805 12.288 0.61 3.803 1.341 7.363 2.048 10.581 3.218 12.995 8.655 24.186 16.433 33.816 7.631 9.655 16.774 16.994 27.331 22.382 10.728 5.364 22.016 7.948 34.060 8.094 14.653-0.146 27.502-2.999 38.424-8.802 10.947-5.681 20.114-13.726 27.502-23.82 7.266-10.24 12.702-22.016 16.408-35.474 3.706-13.434 5.486-27.843 5.486-43.276 0.024-23.723-3.657-44.056-10.679-61.074-7.119-17.018-17.262-30.11-30.452-39.253-13.214-9.192-28.94-13.824-47.397-13.946-12.702 0.146-24.381 2.755-34.987 7.973-10.606 5.266-19.529 12.507-26.917 21.65-7.461 9.192-12.727 19.797-15.921 31.817-0.707 3.194-1.341 6.534-1.658 10.094-0.39 3.486-0.512 7.046-0.512 10.606l0.024 56.344zM5418.374 533.845l127.781-318.683c1.78-4.169 2.877-7.631 3.462-10.411 0.585-2.706 0.829-4.974 0.829-6.632 0-2.146-0.512-4.535-1.414-6.997-0.951-2.633-2.17-5.486-3.584-8.704-4.169-7.851-8.923-15.384-14.263-22.382-5.486-6.9-11.191-13.19-17.14-18.798-5.827-5.486-11.581-10.118-17.164-13.702-8.899-6.437-17.725-11.678-26.405-15.604-8.606-4.023-16.652-6.9-24.235-8.68l19.944-73.557c7.266 0.975 15.823 2.974 25.6 6.071 9.874 3.218 20.48 7.851 31.89 14.043 11.337 6.193 22.869 14.287 34.621 24.186 10.142 8.753 19.87 19.334 29.306 31.622 9.387 12.386 18.895 27.282 28.428 44.617 9.411 17.53 19.285 38.205 29.623 62.391 10.386 24.040 21.455 52.248 33.329 84.529l87.113 236.69h-93.525l-54.296-185.32c-2.365-7.485-4.632-15.238-6.9-23.186-2.121-7.851-4.267-15.726-6.193-23.333-2.024-7.729-3.803-14.75-5.486-21.187h-2.146c-1.658 6.437-3.56 13.458-5.827 21.065-2.146 7.729-4.51 15.458-6.9 23.308s-4.852 15.336-7.241 22.626l-62.147 186.027h-97.061zM1280.756 824.003h16.433v-121.344h-16.433v92.477l-0.512 0.195-58.417-92.672h-16.433v121.344h16.433v-92.428l0.488-0.146 58.441 92.574zM1427.48 702.659h-16.433v53.589h-58.904v-53.565h-16.433v121.32h16.433v-54.857h58.904v54.857h16.433v-121.344zM1526.004 811.91h2.17c13.995 0 25.722-4.584 35.109-13.726 9.435-9.143 14.141-20.846 14.141-35.084 0-14.434-4.706-26.185-14.141-35.328-9.411-9.192-21.114-13.751-35.109-13.751h-2.17v-16.335h-16.433v16.335h-2.414c-14.043 0-25.746 4.535-35.060 13.678-9.338 9.094-13.995 20.846-13.995 35.23 0 14.287 4.657 25.99 14.019 35.182s21.041 13.8 35.060 13.8h2.414v17.091h16.433v-17.091zM1507.157 798.988c-10.508 0-18.603-3.243-24.283-9.752-5.681-6.485-8.558-15.238-8.558-26.283 0-11.142 2.853-19.944 8.558-26.38s13.775-9.655 24.283-9.655h2.414v72.070h-2.414zM1526.004 798.988v-72.094h2.341c10.338 0 18.383 3.243 24.113 9.752 5.754 6.485 8.631 15.287 8.631 26.429 0 10.996-2.877 19.724-8.631 26.185-5.73 6.485-13.775 9.704-24.113 9.704h-2.341zM1698.962 752.469c0-14.799-4.584-27.136-13.775-36.913s-21.114-14.677-35.791-14.677c-14.19 0-25.698 4.901-34.548 14.677s-13.312 22.089-13.312 36.913v21.626c0 14.75 4.462 27.038 13.312 36.913 8.85 9.801 20.358 14.75 34.548 14.75 14.677 0 26.6-4.901 35.791-14.726s13.775-22.138 13.775-36.962v-21.602zM1682.53 774.242c0 11.093-2.999 20.236-8.997 27.331s-14.043 10.679-24.137 10.679c-9.582 0-17.189-3.56-22.869-10.679s-8.558-16.238-8.558-27.331v-21.772c0-11.191 2.853-20.382 8.558-27.477 5.681-7.144 13.312-10.679 22.869-10.679 10.142 0 18.213 3.535 24.186 10.63s8.948 16.238 8.948 27.526v21.772zM1748.382 751.323v-48.664h-16.408v121.344h46.397c12.946 0 22.991-3.34 30.184-9.996 7.144-6.656 10.728-15.482 10.728-26.331 0-11.045-3.584-19.895-10.728-26.478-7.192-6.583-17.237-9.85-30.184-9.85h-29.989zM1748.382 764.245h29.989c8.241 0 14.385 2.194 18.432 6.607 4.047 4.389 6.095 9.947 6.095 16.677s-2.048 12.337-6.144 16.798c-4.072 4.486-10.191 6.754-18.383 6.754h-29.989v-46.836zM1870.848 824.003l38.668-98.572h0.512l38.668 98.572h20.992v-121.344h-16.408v48.006l1.658 49.323-0.439 0.098-39.326-97.426h-10.898l-39.18 97.158-0.414-0.049 1.585-49.103v-48.006h-16.433v121.344h21.016zM2075.526 733.915h-50.81l-11.532-31.232h-16.75l46.933 121.344h14.068l46.178-121.344h-16.774l-11.313 31.232zM2029.787 747.666h40.838l-19.992 55.247h-0.512l-20.334-55.247zM2128.896 824.003h16.53v-108.422h59.002v108.422h16.408v-121.344h-91.941v121.344zM2238.488 672.768h-16.408v43.227h16.408v-43.227zM2344.034 824.003h16.408v-121.344h-16.408v92.477l-0.512 0.195-58.417-92.672h-16.408v121.344h16.408v-92.428l0.512-0.146 58.417 92.574zM2490.807 752.469c0-14.799-4.584-27.136-13.775-36.913s-21.114-14.677-35.791-14.677c-14.19 0-25.698 4.901-34.548 14.677s-13.312 22.089-13.312 36.913v21.626c0 14.75 4.462 27.038 13.312 36.913 8.85 9.801 20.358 14.75 34.548 14.75 14.677 0 26.6-4.901 35.791-14.726s13.775-22.138 13.775-36.962v-21.602zM2474.374 774.242c0 11.093-2.999 20.236-8.997 27.331s-14.043 10.679-24.137 10.679c-9.582 0-17.189-3.56-22.869-10.679s-8.558-16.238-8.558-27.331v-21.772c0-11.191 2.853-20.382 8.558-27.477 5.681-7.144 13.312-10.679 22.869-10.679 10.142 0 18.213 3.535 24.186 10.63s8.948 16.238 8.948 27.526v21.772zM2615.613 702.659h-16.433v53.589h-58.904v-53.565h-16.433v121.32h16.433v-54.857h58.904v54.857h16.433v-121.344zM2745.856 702.659h-16.408v53.589h-58.929v-53.565h-16.408v121.32h16.408v-54.857h58.929v54.857h16.408v-121.344zM2876.245 752.469c0-14.799-4.584-27.136-13.775-36.913s-21.114-14.677-35.791-14.677c-14.19 0-25.698 4.901-34.548 14.677s-13.312 22.089-13.312 36.913v21.626c0 14.75 4.462 27.038 13.312 36.913 8.85 9.801 20.358 14.75 34.548 14.75 14.677 0 26.6-4.901 35.791-14.726s13.775-22.138 13.775-36.962v-21.602zM2859.813 774.242c0 11.093-2.999 20.236-8.997 27.331s-14.043 10.679-24.137 10.679c-9.582 0-17.189-3.56-22.869-10.679s-8.558-16.238-8.558-27.331v-21.772c0-11.191 2.853-20.382 8.558-27.477 5.681-7.144 13.312-10.679 22.869-10.679 10.142 0 18.213 3.535 24.186 10.63s8.948 16.238 8.948 27.526v21.772zM2938.051 747.471h-40.862v12.873h40.862v-12.873zM3056.469 702.659h-16.482v108.446h-59.002v-108.422h-16.433v121.32h91.916v-121.344zM3111.424 751.323v-48.664h-16.433v121.344h46.421c12.922 0 22.991-3.34 30.135-9.996 7.192-6.656 10.752-15.482 10.752-26.331 0-11.045-3.56-19.895-10.752-26.478-7.144-6.583-17.213-9.85-30.135-9.85h-29.989zM3111.424 764.245h29.989c8.216 0 14.36 2.194 18.408 6.607 4.047 4.389 6.071 9.947 6.071 16.677s-2.024 12.337-6.12 16.798c-4.072 4.486-10.216 6.754-18.359 6.754h-29.989v-46.836zM3263.854 733.915h-50.81l-11.532-31.232h-16.75l46.933 121.344h14.068l46.178-121.344h-16.774l-11.313 31.232zM3218.115 747.666h40.838l-19.992 55.247h-0.512l-20.334-55.247zM3317.175 702.659v121.344h39.595c12.678 0 22.577-2.755 29.745-8.241s10.728-13.678 10.728-24.625c0-5.388-1.707-10.191-5.144-14.434-3.462-4.291-7.973-7.436-13.605-9.484 7.339-1.56 13.093-5.144 17.286-10.752s6.315-12.142 6.315-19.578c0-11.093-3.608-19.627-10.801-25.478s-16.945-8.753-29.282-8.753h-44.837zM3333.583 772.437h26.6c6.12 0 11.069 1.658 14.921 4.998 3.803 3.389 5.73 8.046 5.73 14.043 0 6.583-2.072 11.483-6.217 14.726s-10.094 4.901-17.847 4.901h-23.186v-38.668zM3333.583 759.467v-43.91h28.428c7.461 0 13.239 1.853 17.432 5.534 4.145 3.657 6.242 8.899 6.242 15.677 0 7.046-1.731 12.629-5.218 16.677s-8.802 6.046-16.018 6.046h-30.866zM3526.607 752.469c0-14.799-4.584-27.136-13.775-36.913s-21.114-14.677-35.791-14.677c-14.19 0-25.698 4.901-34.548 14.677s-13.312 22.089-13.312 36.913v21.626c0 14.75 4.462 27.038 13.312 36.913 8.85 9.801 20.358 14.75 34.548 14.75 14.677 0 26.6-4.901 35.791-14.726s13.775-22.138 13.775-36.962v-21.602zM3510.199 774.242c0 11.093-2.999 20.236-8.997 27.331s-14.043 10.679-24.137 10.679c-9.582 0-17.189-3.56-22.869-10.679s-8.558-16.238-8.558-27.331v-21.772c0-11.191 2.853-20.382 8.558-27.477 5.681-7.144 13.312-10.679 22.869-10.679 10.142 0 18.213 3.535 24.186 10.63s8.948 16.238 8.948 27.526v21.772zM3559.643 702.659v121.344h39.595c12.678 0 22.577-2.755 29.745-8.241s10.728-13.678 10.728-24.625c0-5.388-1.707-10.191-5.144-14.434-3.462-4.291-7.973-7.436-13.605-9.484 7.339-1.56 13.093-5.144 17.286-10.752s6.315-12.142 6.315-19.578c0-11.093-3.608-19.627-10.801-25.478s-16.945-8.753-29.282-8.753h-44.837zM3576.052 772.437h26.6c6.12 0 11.069 1.658 14.921 4.998 3.803 3.389 5.73 8.046 5.73 14.043 0 6.583-2.072 11.483-6.217 14.726s-10.094 4.901-17.847 4.901h-23.186v-38.668zM3576.052 759.467v-43.91h28.428c7.461 0 13.239 1.853 17.432 5.534 4.145 3.657 6.242 8.899 6.242 15.677 0 7.046-1.731 12.629-5.218 16.677s-8.802 6.046-16.018 6.046h-30.866zM3742.988 733.915h-50.81l-11.532-31.232h-16.75l46.933 121.344h14.068l46.178-121.344h-16.774l-11.313 31.232zM3697.274 747.666h40.838l-19.992 55.247h-0.512l-20.334-55.247zM3806.964 702.659h-17.432l28.428 51.858c-7.826 2.999-13.775 7.29-17.871 12.849-4.072 5.534-6.12 12.239-6.12 20.139 0 11.532 3.803 20.529 11.459 26.917s18.164 9.582 31.549 9.582h38.839v-121.344h-16.408v47.494h-27.185l-25.259-47.494zM3859.383 811.106h-22.43c-8.655 0-15.262-2.097-19.797-6.29-4.535-4.145-6.778-9.85-6.778-17.14s2.267-13.19 6.802-17.774c4.584-4.584 11.093-6.802 19.602-6.802h22.601v48.006zM4050.944 741.571l0.146-0.488c0.244-11.435-3.755-20.943-11.995-28.672-8.216-7.656-19.066-11.532-32.573-11.532-13.726 0-24.893 4.852-33.548 14.58s-12.946 22.040-12.946 37.010v21.626c0 14.897 4.315 27.282 12.946 37.010 8.631 9.752 19.822 14.677 33.548 14.677s24.649-3.657 32.768-10.996c8.094-7.29 12.044-16.945 11.8-28.989l-0.146-0.512h-15.75c0 8.533-2.511 15.238-7.509 20.187-4.998 4.901-12.044 7.387-21.163 7.387-9.167 0-16.482-3.657-21.894-11.045-5.461-7.387-8.192-16.579-8.192-27.477v-21.821c0-11.045 2.731-20.236 8.192-27.624 5.437-7.387 12.727-11.093 21.894-11.093 9.118 0 16.165 2.487 21.163 7.387s7.509 11.703 7.509 20.382h15.75zM4157.147 824.003h16.433v-121.344h-16.433v92.477l-0.512 0.195-58.417-92.672h-16.433v121.344h16.433v-92.428l0.488-0.146 58.441 92.574zM4297.85 741.571l0.146-0.488c0.244-11.435-3.755-20.943-11.995-28.672-8.216-7.656-19.066-11.532-32.573-11.532-13.726 0-24.893 4.852-33.548 14.58s-12.946 22.040-12.946 37.010v21.626c0 14.897 4.315 27.282 12.946 37.010 8.631 9.752 19.822 14.677 33.548 14.677s24.649-3.657 32.768-10.996c8.094-7.29 12.044-16.945 11.8-28.989l-0.146-0.512h-15.75c0 8.533-2.511 15.238-7.509 20.187-4.998 4.901-12.044 7.387-21.163 7.387-9.167 0-16.482-3.657-21.894-11.045-5.461-7.387-8.192-16.579-8.192-27.477v-21.821c0-11.045 2.731-20.236 8.192-27.624 5.437-7.387 12.727-11.093 21.894-11.093 9.118 0 16.165 2.487 21.163 7.387s7.509 11.703 7.509 20.382h15.75zM4408.442 811.106h-39.010v-108.422h-16.408v108.422h-38.936v12.898h94.33v-12.898zM4506.843 758.906h-55.589v-43.325h64.098v-12.898h-80.506v121.32h79.604v-12.898h-63.195v-39.278h55.589v-12.922zM4564.114 824.003l38.668-98.572h0.512l38.668 98.572h20.992v-121.344h-16.433v48.006l1.658 49.323-0.414 0.098-39.326-97.426h-10.923l-39.131 97.134-0.439-0.049 1.56-49.103v-48.006h-16.408v121.368h21.016zM4768.817 733.915h-50.81l-11.532-31.232h-16.75l46.933 121.344h14.068l46.178-121.344h-16.774l-11.313 31.232zM4723.078 747.666h40.838l-19.992 55.247h-0.512l-20.334-55.247zM875.983 946.469h-357.376l21.577-54.053-56.393-22.479c-13.678 16.53-26.917 28.77-40.058 36.62-13.044 7.704-25.795 11.678-38.546 11.678-12.629 0.049-26.551-2.901-41.667-8.923-13.58-5.413-23.991-12.532-31.159-21.26-7.29-8.802-11.362-17.969-12.288-27.526s0.268-18.749 3.73-27.502c5.754-14.409 13.556-25.746 23.528-33.89 9.947-8.143 24.942-15.287 44.617-21.528 19.846-6.193 48.177-12.264 85.016-18.042 40.155-6.242 71.802-13.629 94.891-21.797 22.967-8.363 41.472-18.993 55.345-31.988 14.019-12.946 25.332-30.232 33.914-51.712 5.315-13.288 8.216-26.722 8.68-40.277 0.366-13.629-1.341-27.916-5.266-43.081-3.803-15.116-9.679-29.94-17.603-44.203-7.851-14.409-16.628-27.77-25.941-40.131 25.502-9.655 45.251-20.626 58.953-33.182 13.775-12.361 24.259-27.526 31.403-45.47 9.923-24.869 11.922-49.615 5.9-74.338-6.095-24.527-19.7-47.177-41.058-67.974-20.48-19.749-46.69-36.206-78.799-49.542 40.57 0.024 68.657 0.098 74.752 0.098 186.88 1.536 229.132-106.959 302.592-266.435v898.146c0 54.321-44.446 98.767-98.743 98.792v0zM322.511 946.469h-211.529c-54.345 0-98.792-44.568-98.792-98.792v-533.406c0-54.272 44.471-98.792 98.792-98.792l295.863 0.219-24.113 60.465 56.271 22.455c31.89-48.738 73.143-63.098 123.733-42.91 22.065 8.777 36.888 20.894 44.422 36.571 7.607 15.482 7.948 31.842 1.024 49.201-5.534 13.897-13.605 25.064-24.21 33.621-10.63 8.582-25.307 15.774-44.178 21.577-18.7 5.803-45.422 11.191-80.018 16.238-39.107 5.534-70.875 12.556-95.427 21.090-24.503 8.436-44.568 19.749-60.465 33.719-15.75 14.019-28.16 32.012-36.962 54.101-9.801 24.576-11.215 51.054-4.315 79.384 7.046 28.379 21.967 57.417 45.056 87.089-22.942 8.704-41.643 19.432-55.832 31.963-14.043 12.605-24.942 28.379-32.549 47.445-9.045 22.65-10.289 45.885-3.852 69.608 6.607 23.796 20.334 45.641 41.204 65.585 18.432 17.676 40.448 32.232 65.877 43.569v0zM369.396 670.671c-7.948-15.336-13.263-30.037-15.823-44.203-2.536-14.092-1.292-27.526 3.803-40.253 3.925-9.874 8.606-17.871 13.678-24.015 5.218-6.095 11.752-11.386 19.773-15.896 8.021-4.486 19.773-8.802 35.084-13.19 15.287-4.218 39.497-9.484 72.655-15.433 16.433-2.95 36.937-7.558 61.074-13.483 8.265 13.8 13.336 28.574 15.433 44.325 1.999 15.531 0.634 29.574-4.194 41.74-3.17 7.924-6.388 14.36-9.63 19.115-3.194 4.754-6.997 8.997-11.288 12.337-4.437 3.34-10.045 6.656-16.994 9.777-6.827 3.194-15.75 6.168-26.575 9.070-10.947 2.853-22.845 5.486-35.645 8.046l-34.987 7.192c-6.997 1.512-18.798 3.998-35.45 7.509-16.677 3.657-26.965 6.12-30.915 7.363v0z" />
<glyph unicode="&#xe918;" glyph-name="logo_sign" d="M863.793 946.469h-357.376l21.577-54.053-56.393-22.479c-13.678 16.53-26.917 28.77-40.058 36.62-13.044 7.704-25.795 11.678-38.546 11.678-12.629 0.049-26.551-2.901-41.667-8.923-13.58-5.413-23.991-12.532-31.159-21.26-7.29-8.802-11.362-17.969-12.288-27.526s0.268-18.749 3.73-27.502c5.754-14.409 13.556-25.746 23.528-33.89 9.947-8.143 24.942-15.287 44.617-21.528 19.846-6.193 48.177-12.264 85.016-18.042 40.155-6.242 71.802-13.629 94.891-21.797 22.967-8.363 41.472-18.993 55.345-31.988 14.019-12.946 25.332-30.232 33.914-51.712 5.315-13.288 8.216-26.722 8.68-40.277 0.366-13.629-1.341-27.916-5.266-43.081-3.803-15.116-9.679-29.94-17.603-44.203-7.851-14.409-16.628-27.77-25.941-40.131 25.502-9.655 45.251-20.626 58.953-33.182 13.775-12.361 24.259-27.526 31.403-45.47 9.923-24.869 11.922-49.615 5.9-74.338-6.095-24.527-19.7-47.177-41.058-67.974-20.48-19.749-46.69-36.206-78.799-49.542 40.57 0.024 68.657 0.098 74.752 0.098 186.88 1.536 229.132-106.959 302.592-266.435v898.146c0 54.321-44.446 98.767-98.743 98.792v0zM310.321 946.469h-211.529c-54.345 0-98.792-44.568-98.792-98.792v-533.406c0-54.272 44.471-98.792 98.792-98.792l295.863 0.219-24.113 60.465 56.271 22.455c31.89-48.738 73.143-63.098 123.733-42.91 22.065 8.777 36.888 20.894 44.422 36.571 7.607 15.482 7.948 31.842 1.024 49.201-5.534 13.897-13.605 25.064-24.21 33.621-10.63 8.582-25.307 15.774-44.178 21.577-18.7 5.803-45.422 11.191-80.018 16.238-39.107 5.534-70.875 12.556-95.427 21.090-24.503 8.436-44.568 19.749-60.465 33.719-15.75 14.019-28.16 32.012-36.962 54.101-9.801 24.576-11.215 51.054-4.315 79.384 7.046 28.379 21.967 57.417 45.056 87.089-22.942 8.704-41.643 19.432-55.832 31.963-14.043 12.605-24.942 28.379-32.549 47.445-9.045 22.65-10.289 45.885-3.852 69.608 6.607 23.796 20.334 45.641 41.204 65.585 18.432 17.676 40.448 32.232 65.877 43.569v0zM357.205 670.671c-7.948-15.336-13.263-30.037-15.823-44.203-2.536-14.092-1.292-27.526 3.803-40.253 3.925-9.874 8.606-17.871 13.678-24.015 5.218-6.095 11.752-11.386 19.773-15.896 8.021-4.486 19.773-8.802 35.084-13.19 15.287-4.218 39.497-9.484 72.655-15.433 16.433-2.95 36.937-7.558 61.074-13.483 8.265 13.8 13.336 28.574 15.433 44.325 1.999 15.531 0.634 29.574-4.194 41.74-3.17 7.924-6.388 14.36-9.63 19.115-3.194 4.754-6.997 8.997-11.288 12.337-4.437 3.34-10.045 6.656-16.994 9.777-6.827 3.194-15.75 6.168-26.575 9.070-10.947 2.853-22.845 5.486-35.645 8.046l-34.987 7.192c-6.997 1.512-18.798 3.998-35.45 7.509-16.677 3.657-26.965 6.12-30.915 7.363v0z" />
<glyph unicode="&#xe919;" glyph-name="ico-hot" d="M400.018-64c0 0-249.161 244.59-146.286 413.733s281.161 274.286 294.875 384 11.447 162.304-6.875 180.59 219.429-185.161 189.733-338.286-86.857-285.733-61.733-308.59 58.661 58.661 69.339 96c14.482 50.725 22.089 150.089 22.089 150.089s247.625-341.321-54.089-579.035c-12.69-9.984-11.447 147.054-11.447 147.054l-110.482-80.786 1.536 319.232c0 0-183.625-78.482-204.946-185.161-25.198-125.842 18.286-198.839 18.286-198.839z" />
<glyph unicode="&#xe91a;" glyph-name="ico-folder" d="M1022.413 704h-1022.413c0-52.787 0-45.875 0-102.4v-460.8c0-56.525 45.875-102.4 102.4-102.4h819.2c56.525 0 102.4 45.875 102.4 102.4v460.8c0 56.525-1.587 43.213-1.587 102.4zM512 806.4c0 28.262-22.886 51.2-51.2 51.2h-409.6c-28.314 0-51.2-22.938-51.2-51.2v-51.2h512c0 28.774 0 22.938 0 51.2z" />
</font>
</defs>
</svg>
